<svg width="59" height="59" viewBox="0 0 59 59" fill="none" xmlns="http://www.w3.org/2000/svg">
<path d="M59 29.5C59 23.6655 57.2699 17.9619 54.0284 13.1107C50.7869 8.25943 46.1796 4.47834 40.7892 2.24555C35.3987 0.0127686 29.4673 -0.57143 23.7448 0.566834C18.0224 1.7051 12.766 4.5147 8.64035 8.64035C4.5147 12.766 1.7051 18.0224 0.566834 23.7448C-0.57143 29.4673 0.0127687 35.3987 2.24555 40.7892C4.47834 46.1796 8.25943 50.7869 13.1107 54.0284C17.9619 57.2699 23.6655 59 29.5 59L29.5 44.25C26.5827 44.25 23.731 43.3849 21.3053 41.7642C18.8797 40.1434 16.9892 37.8398 15.8728 35.1446C14.7564 32.4494 14.4643 29.4836 15.0334 26.6224C15.6025 23.7612 17.0074 21.133 19.0702 19.0702C21.133 17.0074 23.7612 15.6025 26.6224 15.0334C29.4836 14.4643 32.4494 14.7564 35.1446 15.8728C37.8398 16.9892 40.1434 18.8797 41.7642 21.3053C43.3849 23.731 44.25 26.5827 44.25 29.5H59Z" fill="#FFFFFF"/>
<path d="M29.5 29.5H44.25V44.25H29.5V29.5Z" fill="#FFFFFF"/>
<path d="M44.25 44.25H59V59H44.25V44.25Z" fill="#FFFFFF"/>
</svg>
